<svg xmlns="http://www.w3.org/2000/svg" viewBox="0 0 256 256">
  <defs>
    <linearGradient id="shieldGrad" x1="0%" y1="0%" x2="0%" y2="100%">
      <stop offset="0%" style="stop-color:#00d4ff;stop-opacity:1"/>
      <stop offset="100%" style="stop-color:#0066cc;stop-opacity:1"/>
    </linearGradient>
  </defs>
  <path d="M128 20L40 60v60c0 55 40 100 88 116 48-16 88-61 88-116V60L128 20z" fill="#0a1e3d"/>
  <path d="M128 35L55 70v50c0 48 35 88 73 102 38-14 73-54 73-102V70L128 35z" fill="url(#shieldGrad)"/>
  <circle cx="128" cy="110" r="28" fill="#0a1e3d" opacity="0.3"/>
  <path d="M128 90v40M108 110h40" stroke="#00d4ff" stroke-width="8" stroke-linecap="round"/>
  <circle cx="128" cy="110" r="24" fill="none" stroke="#00d4ff" stroke-width="4"/>
  <path d="M95 150l10 15 13-10 10 10 13-10 10 10 13-10 10 15" fill="none" stroke="#00d4ff" stroke-width="3" stroke-linecap="round" stroke-linejoin="round" opacity="0.6"/>
</svg>